<svg width="32" height="32" viewBox="0 0 32 32" fill="none" xmlns="http://www.w3.org/2000/svg">
  <!-- 左角 -->
  <path d="M8 14 Q7 10 5 8 L4 7 Q3.5 6.5 4.5 6 L6 7 Q8 9 9 13 Z" 
        fill="#000"/>
  
  <!-- 右角 -->
  <path d="M24 14 Q25 10 27 8 L28 7 Q28.5 6.5 27.5 6 L26 7 Q24 9 23 13 Z" 
        fill="#000"/>
  
  <!-- 简化皇冠 -->
  <g transform="translate(16, 4)">
    <!-- 皇冠主体 -->
    <path d="M-6 0 L-5 -3 L-2 -1 L0 -4 L2 -1 L5 -3 L6 0 Z" 
          fill="#000"/>
    <!-- 皇冠底座 -->
    <rect x="-6.5" y="0" width="13" height="2" fill="#000"/>
  </g>
  
  <!-- 头部轮廓（极简）-->
  <ellipse cx="16" cy="18" rx="10" ry="11" fill="#fff" stroke="#000" stroke-width="2"/>
  
  <!-- 眼睛 -->
  <circle cx="13" cy="17" r="1.5" fill="#000"/>
  <circle cx="19" cy="17" r="1.5" fill="#000"/>
  
  <!-- 鼻子 -->
  <ellipse cx="16" cy="21" rx="3" ry="2" fill="#000"/>
</svg>